<svg xmlns="http://www.w3.org/2000/svg" viewBox="0 0 64 64" role="img" aria-label="扑克牌">
  <defs>
    <linearGradient id="pk-bg" x1="0" y1="0" x2="0" y2="1">
      <stop offset="0" stop-color="#1c8a59"/>
      <stop offset="1" stop-color="#0f5e3b"/>
    </linearGradient>
  </defs>
  <rect x="1" y="1" width="62" height="62" rx="13" fill="url(#pk-bg)"/>
  <g transform="rotate(-13 30 40)">
    <rect x="16" y="20" width="22" height="30" rx="4" fill="#fbfaf5" stroke="#cbb" stroke-width="0.8"/>
    <path d="M27 27 C24 31 20 32 20 36 a3 3 0 0 0 6 0 a3 3 0 0 0 6 0 c0-4-4-5-7-9 z" fill="#22242a"/>
  </g>
  <g transform="rotate(12 38 40)">
    <rect x="28" y="18" width="22" height="30" rx="4" fill="#fbfaf5" stroke="#cbb" stroke-width="0.8"/>
    <path d="M39 41 C42 37 46 35 46 31 a3 3 0 0 0 -6 0 a3 3 0 0 0 -6 0 c0 4 4 6 7 10 z" fill="#c8252c"/>
  </g>
</svg>
